<?xml version="1.0" encoding="UTF-8"?> <svg xmlns="http://www.w3.org/2000/svg" width="2212" height="389" viewBox="0 0 2212 389" fill="none"> <path fill-rule="evenodd" clip-rule="evenodd" d="M119.85 74.5C53.6574 74.5 0 128.226 0 194.5C0 260.774 53.6574 314.5 119.85 314.5H300.144C366.337 314.5 420 260.774 420 194.5C420 128.226 366.337 74.5 300.144 74.5H119.85ZM300 104.5C250.295 104.5 210 144.795 210 194.5C210 244.206 250.295 284.5 300 284.5C349.706 284.5 390 244.206 390 194.5C390 144.795 349.706 104.5 300 104.5Z" fill="#353535"></path> <path d="M539.685 311V77.3347H636.208C653.703 77.3347 668.801 80.7575 681.504 87.6032C694.283 94.3728 704.133 103.843 711.054 116.013C717.976 128.107 721.437 142.178 721.437 158.228C721.437 174.353 717.9 188.463 710.826 200.557C703.828 212.575 693.826 221.892 680.819 228.51C667.813 235.127 652.372 238.436 634.497 238.436H574.94V193.939H624C632.519 193.939 639.631 192.456 645.336 189.489C651.117 186.523 655.49 182.378 658.457 177.053C661.423 171.653 662.907 165.378 662.907 158.228C662.907 151.002 661.423 144.764 658.457 139.516C655.49 134.192 651.117 130.084 645.336 127.194C639.555 124.304 632.443 122.858 624 122.858H596.161V311H539.685ZM742.85 311V77.3347H839.374C856.869 77.3347 871.967 80.4913 884.67 86.8045C897.448 93.0417 907.298 102.017 914.22 113.731C921.142 125.368 924.603 139.174 924.603 155.147C924.603 171.348 921.066 185.116 913.992 196.449C906.918 207.707 896.878 216.302 883.871 222.235C870.864 228.091 855.461 231.02 837.663 231.02H776.622V186.523H827.166C835.685 186.523 842.797 185.42 848.502 183.214C854.282 180.932 858.656 177.51 861.622 172.946C864.589 168.306 866.072 162.373 866.072 155.147C866.072 147.921 864.589 141.95 861.622 137.234C858.656 132.442 854.282 128.867 848.502 126.509C842.721 124.075 835.609 122.858 827.166 122.858H799.327V311H742.85ZM874.401 204.208L932.589 311H870.978L813.931 204.208H874.401ZM1169.7 194.167C1169.7 219.877 1164.75 241.669 1154.87 259.543C1144.98 277.418 1131.59 290.995 1114.7 300.275C1097.89 309.555 1079.03 314.195 1058.11 314.195C1037.12 314.195 1018.22 309.517 1001.41 300.161C984.599 290.805 971.25 277.228 961.361 259.429C951.549 241.555 946.643 219.801 946.643 194.167C946.643 168.458 951.549 146.666 961.361 128.791C971.25 110.916 984.599 97.3393 1001.41 88.0596C1018.22 78.7799 1037.12 74.1401 1058.11 74.1401C1079.03 74.1401 1097.89 78.7799 1114.7 88.0596C1131.59 97.3393 1144.98 110.916 1154.87 128.791C1164.75 146.666 1169.7 168.458 1169.7 194.167ZM1111.97 194.167C1111.97 178.955 1109.8 166.1 1105.46 155.603C1101.2 145.107 1095.04 137.158 1086.98 131.758C1078.99 126.357 1069.37 123.657 1058.11 123.657C1046.93 123.657 1037.31 126.357 1029.25 131.758C1021.18 137.158 1014.99 145.107 1010.65 155.603C1006.39 166.1 1004.26 178.955 1004.26 194.167C1004.26 209.38 1006.39 222.235 1010.65 232.731C1014.99 243.228 1021.18 251.177 1029.25 256.577C1037.31 261.977 1046.93 264.678 1058.11 264.678C1069.37 264.678 1078.99 261.977 1086.98 256.577C1095.04 251.177 1101.2 243.228 1105.46 232.731C1109.8 222.235 1111.97 209.38 1111.97 194.167ZM1196.25 311V77.3347H1355.75V123.201H1252.72V171.12H1345.59V217.1H1252.72V311H1196.25ZM1504.06 147.389C1503.3 139.022 1499.92 132.518 1493.91 127.879C1487.98 123.163 1479.5 120.805 1468.47 120.805C1461.16 120.805 1455.08 121.755 1450.21 123.657C1445.34 125.559 1441.69 128.183 1439.26 131.53C1436.82 134.8 1435.57 138.565 1435.49 142.825C1435.34 146.324 1436.03 149.404 1437.55 152.067C1439.14 154.729 1441.43 157.087 1444.39 159.14C1447.44 161.118 1451.09 162.867 1455.35 164.389C1459.61 165.91 1464.4 167.241 1469.72 168.382L1489.8 172.946C1501.36 175.456 1511.56 178.803 1520.38 182.986C1529.28 187.17 1536.73 192.152 1542.74 197.932C1548.83 203.713 1553.43 210.369 1556.55 217.899C1559.67 225.429 1561.26 233.872 1561.34 243.228C1561.26 257.984 1557.54 270.649 1550.16 281.221C1542.78 291.794 1532.17 299.895 1518.33 305.523C1504.56 311.152 1487.94 313.966 1468.47 313.966C1448.92 313.966 1431.88 311.038 1417.35 305.181C1402.82 299.324 1391.53 290.425 1383.47 278.483C1375.4 266.541 1371.26 251.443 1371.03 233.188H1425.11C1425.57 240.718 1427.58 246.993 1431.16 252.013C1434.73 257.033 1439.64 260.837 1445.88 263.423C1452.19 266.009 1459.49 267.302 1467.78 267.302C1475.39 267.302 1481.85 266.275 1487.18 264.221C1492.58 262.168 1496.72 259.315 1499.61 255.664C1502.5 252.013 1503.99 247.83 1504.06 243.114C1503.99 238.702 1502.62 234.937 1499.96 231.818C1497.29 228.624 1493.19 225.886 1487.63 223.604C1482.16 221.246 1475.16 219.078 1466.64 217.1L1442.22 211.396C1421.99 206.756 1406.06 199.264 1394.42 188.919C1382.78 178.498 1377 164.427 1377.08 146.704C1377 132.252 1380.88 119.588 1388.71 108.711C1396.55 97.8337 1407.39 89.3527 1421.23 83.2676C1435.07 77.1826 1450.86 74.1401 1468.58 74.1401C1486.68 74.1401 1502.39 77.2206 1515.7 83.3817C1529.09 89.4667 1539.47 98.0238 1546.85 109.053C1554.23 120.082 1557.99 132.861 1558.14 147.389H1504.06ZM1803.98 194.167C1803.98 219.877 1799.04 241.669 1789.15 259.543C1779.26 277.418 1765.87 290.995 1748.99 300.275C1732.18 309.555 1713.31 314.195 1692.4 314.195C1671.4 314.195 1652.5 309.517 1635.69 300.161C1618.88 290.805 1605.53 277.228 1595.65 259.429C1585.83 241.555 1580.93 219.801 1580.93 194.167C1580.93 168.458 1585.83 146.666 1595.65 128.791C1605.53 110.916 1618.88 97.3393 1635.69 88.0596C1652.5 78.7799 1671.4 74.1401 1692.4 74.1401C1713.31 74.1401 1732.18 78.7799 1748.99 88.0596C1765.87 97.3393 1779.26 110.916 1789.15 128.791C1799.04 146.666 1803.98 168.458 1803.98 194.167ZM1746.25 194.167C1746.25 178.955 1744.08 166.1 1739.75 155.603C1735.49 145.107 1729.33 137.158 1721.26 131.758C1713.28 126.357 1703.65 123.657 1692.4 123.657C1681.22 123.657 1671.59 126.357 1663.53 131.758C1655.47 137.158 1649.27 145.107 1644.93 155.603C1640.67 166.1 1638.54 178.955 1638.54 194.167C1638.54 209.38 1640.67 222.235 1644.93 232.731C1649.27 243.228 1655.47 251.177 1663.53 256.577C1671.59 261.977 1681.22 264.678 1692.4 264.678C1703.65 264.678 1713.28 261.977 1721.26 256.577C1729.33 251.177 1735.49 243.228 1739.75 232.731C1744.08 222.235 1746.25 209.38 1746.25 194.167ZM1830.53 311V77.3347H1990.03V123.201H1887.01V171.12H1979.88V217.1H1887.01V311H1830.53ZM2004.4 123.201V77.3347H2201.9V123.201H2131.05V311H2075.37V123.201H2004.4Z" fill="#353535"></path> </svg> 